<svg xmlns="http://www.w3.org/2000/svg" viewBox="0 0 960 480" font-family="'DM Sans', Arial, sans-serif" width="960" height="480" preserveAspectRatio="xMidYMid meet">
<defs>
    <style>
      .paper { fill:#FBFAF7; }
      .blue-line { stroke:#2563A8; }
      .blue-fill { fill:#CBDCEF; }
      .blue-mid { fill:#6FA3D6; }
      .blue-dark { fill:#2563A8; }
      .amber { stroke:#E9A13B; }
      .amber-fill { fill:#E9A13B; }
      .label { font-size:14px; font-weight:700; fill:#14213D; }
      .label-light { font-size:14px; font-weight:700; fill:#FBFAF7; }
      .sub { font-size:12px; fill:#55606F; }
      .sub-light { font-size:12px; fill:#DFDCD3; }
      .title { font-family:'Cormorant Garamond', Georgia, serif; font-size:25px; fill:#14213D; font-weight:600; }
      .kicker { font-size:11px; fill:#55606F; letter-spacing:.12em; }
      .arrow { stroke:#55606F; stroke-width:1.5; fill:none; marker-end:url(#arr); }
      .arrow-b { stroke:#2563A8; stroke-width:2; fill:none; marker-end:url(#arrb); }
      .mono { font-family: 'Courier New', monospace; }
</style>
    <marker id="arr" markerWidth="10" markerHeight="10" refX="6" refY="3" orient="auto"><path d="M0,0 L6,3 L0,6 Z" fill="#55606F"/></marker>
    <marker id="arrb" markerWidth="10" markerHeight="10" refX="6" refY="3" orient="auto"><path d="M0,0 L6,3 L0,6 Z" fill="#2563A8"/></marker>
    <marker id="arramb" markerWidth="10" markerHeight="10" refX="6" refY="3" orient="auto"><path d="M0,0 L6,3 L0,6 Z" fill="#9A5F0D"/></marker>
    </defs>
<rect width="960" height="480" class="paper"/>
<text x="40" y="34" class="kicker">DEEL 3 · CONCEPTDIAGRAM</text>
<text x="40" y="64" class="title">Testniveaus en testtypen</text>
<text x="40" y="90" class="sub">Elk niveau kan elk type bevatten, in wisselende mate.</text>
<text x="208" y="182" class="label" text-anchor="end" font-size="12">Functioneel</text>
<text x="208" y="238" class="label" text-anchor="end" font-size="12">Niet-functioneel</text>
<text x="208" y="294" class="label" text-anchor="end" font-size="12">Structuurgericht</text>
<text x="208" y="350" class="label" text-anchor="end" font-size="12">Wijzigingsgericht</text>
<text x="302.5" y="134" class="label" text-anchor="middle" font-size="12">Component</text>
<text x="467.5" y="134" class="label" text-anchor="middle" font-size="12">Integratie</text>
<text x="632.5" y="134" class="label" text-anchor="middle" font-size="12">Systeem</text>
<text x="797.5" y="134" class="label" text-anchor="middle" font-size="12">Acceptatie</text>
<rect x="220" y="150" width="157" height="48" rx="4" fill="#2563A8" stroke="#2563A8" stroke-width="1"/>
<rect x="385" y="150" width="157" height="48" rx="4" fill="#D6E4F2" stroke="#2563A8" stroke-width="1"/>
<rect x="550" y="150" width="157" height="48" rx="4" fill="#2563A8" stroke="#2563A8" stroke-width="1"/>
<rect x="715" y="150" width="157" height="48" rx="4" fill="#6FA3D6" stroke="#2563A8" stroke-width="1"/>
<rect x="220" y="206" width="157" height="48" rx="4" fill="#6FA3D6" stroke="#2563A8" stroke-width="1"/>
<rect x="385" y="206" width="157" height="48" rx="4" fill="#D6E4F2" stroke="#2563A8" stroke-width="1"/>
<rect x="550" y="206" width="157" height="48" rx="4" fill="#2563A8" stroke="#2563A8" stroke-width="1"/>
<rect x="715" y="206" width="157" height="48" rx="4" fill="#6FA3D6" stroke="#2563A8" stroke-width="1"/>
<rect x="220" y="262" width="157" height="48" rx="4" fill="#2563A8" stroke="#2563A8" stroke-width="1"/>
<rect x="385" y="262" width="157" height="48" rx="4" fill="#2563A8" stroke="#2563A8" stroke-width="1"/>
<rect x="550" y="262" width="157" height="48" rx="4" fill="#D6E4F2" stroke="#2563A8" stroke-width="1"/>
<rect x="715" y="262" width="157" height="48" rx="4" fill="#2563A8" stroke="#2563A8" stroke-width="1"/>
<rect x="220" y="318" width="157" height="48" rx="4" fill="#2563A8" stroke="#2563A8" stroke-width="1"/>
<rect x="385" y="318" width="157" height="48" rx="4" fill="#6FA3D6" stroke="#2563A8" stroke-width="1"/>
<rect x="550" y="318" width="157" height="48" rx="4" fill="#FBFAF7" stroke="#2563A8" stroke-width="0.5" stroke-dasharray="3 3"/>
<text x="628.5" y="346" class="sub" text-anchor="middle" font-size="12">—</text>
<rect x="715" y="318" width="157" height="48" rx="4" fill="#6FA3D6" stroke="#2563A8" stroke-width="1"/>
<text x="480" y="440" text-anchor="middle" class="sub" fill="#9A5F0D">Structuurgericht testen heeft geen goede vertaling op acceptatieniveau — daar bestaat "de code" als testobject niet meer.</text>

</svg>