<svg xmlns="http://www.w3.org/2000/svg" width="1400" height="900" viewBox="0 0 1400 900">
<rect width="1400" height="900" fill="#FFFFFF"/>
<line x1="106" y1="216" x2="190" y2="220" stroke="#DFDCD3" stroke-width="1.5"/><line x1="106" y1="416" x2="190" y2="220" stroke="#DFDCD3" stroke-width="1.5"/><line x1="106" y1="216" x2="910" y2="220" stroke="#DFDCD3" stroke-width="1.5"/><line x1="1294" y1="216" x2="490" y2="360" stroke="#DFDCD3" stroke-width="1.5"/><line x1="1294" y1="416" x2="1210" y2="360" stroke="#DFDCD3" stroke-width="1.5"/><line x1="1294" y1="416" x2="490" y2="500" stroke="#DFDCD3" stroke-width="1.5"/><text x="700" y="55" font-family="Cormorant Garamond" font-size="26" font-weight="bold" fill="#14213D" text-anchor="middle"><tspan x="700" dy="0">Gebruiksmodel — Nabestaandenloket</tspan></text><circle cx="90" cy="200" r="16" fill="none" stroke="#14213D" stroke-width="3"/><line x1="90" y1="216" x2="90" y2="260" stroke="#14213D" stroke-width="3"/><line x1="68" y1="234" x2="112" y2="234" stroke="#14213D" stroke-width="3"/><line x1="90" y1="260" x2="70" y2="296" stroke="#14213D" stroke-width="3"/><line x1="90" y1="260" x2="110" y2="296" stroke="#14213D" stroke-width="3"/><text x="90" y="322" font-family="DM Sans" font-size="13" font-weight="bold" fill="#14213D" text-anchor="middle"><tspan x="90" dy="0">Nabestaande</tspan></text><circle cx="90" cy="400" r="16" fill="none" stroke="#14213D" stroke-width="3"/><line x1="90" y1="416" x2="90" y2="460" stroke="#14213D" stroke-width="3"/><line x1="68" y1="434" x2="112" y2="434" stroke="#14213D" stroke-width="3"/><line x1="90" y1="460" x2="70" y2="496" stroke="#14213D" stroke-width="3"/><line x1="90" y1="460" x2="110" y2="496" stroke="#14213D" stroke-width="3"/><text x="90" y="522" font-family="DM Sans" font-size="13" font-weight="bold" fill="#14213D" text-anchor="middle"><tspan x="90" dy="0">Uitvaartondernemer</tspan></text><circle cx="1310" cy="200" r="16" fill="none" stroke="#14213D" stroke-width="3"/><line x1="1310" y1="216" x2="1310" y2="260" stroke="#14213D" stroke-width="3"/><line x1="1288" y1="234" x2="1332" y2="234" stroke="#14213D" stroke-width="3"/><line x1="1310" y1="260" x2="1290" y2="296" stroke="#14213D" stroke-width="3"/><line x1="1310" y1="260" x2="1330" y2="296" stroke="#14213D" stroke-width="3"/><text x="1310" y="322" font-family="DM Sans" font-size="13" font-weight="bold" fill="#14213D" text-anchor="middle"><tspan x="1310" dy="0">Servicedeskmedewerker</tspan></text><circle cx="1310" cy="400" r="16" fill="none" stroke="#14213D" stroke-width="3"/><line x1="1310" y1="416" x2="1310" y2="460" stroke="#14213D" stroke-width="3"/><line x1="1288" y1="434" x2="1332" y2="434" stroke="#14213D" stroke-width="3"/><line x1="1310" y1="460" x2="1290" y2="496" stroke="#14213D" stroke-width="3"/><line x1="1310" y1="460" x2="1330" y2="496" stroke="#14213D" stroke-width="3"/><text x="1310" y="522" font-family="DM Sans" font-size="13" font-weight="bold" fill="#14213D" text-anchor="middle"><tspan x="1310" dy="0">Medewerker</tspan><tspan x="1310" dy="15">Uitkeringen</tspan></text><ellipse cx="340" cy="220" rx="150" ry="52" fill="#F4F2EC" stroke="#1B4A80" stroke-width="2"/><text x="340" y="225" font-family="DM Sans" font-size="13" font-weight="bold" fill="#14213D" text-anchor="middle"><tspan x="340" dy="0">Melding indienen</tspan></text><ellipse cx="1060" cy="220" rx="150" ry="52" fill="#F4F2EC" stroke="#1B4A80" stroke-width="2"/><text x="1060" y="225" font-family="DM Sans" font-size="13" font-weight="bold" fill="#14213D" text-anchor="middle"><tspan x="1060" dy="0">Status raadplegen</tspan></text><ellipse cx="340" cy="360" rx="150" ry="52" fill="#F4F2EC" stroke="#1B4A80" stroke-width="2"/><text x="340" y="365" font-family="DM Sans" font-size="13" font-weight="bold" fill="#14213D" text-anchor="middle"><tspan x="340" dy="0">Melding namens beller</tspan><tspan x="340" dy="15">registreren</tspan></text><ellipse cx="1060" cy="360" rx="150" ry="52" fill="#F4F2EC" stroke="#1B4A80" stroke-width="2"/><text x="1060" y="365" font-family="DM Sans" font-size="13" font-weight="bold" fill="#14213D" text-anchor="middle"><tspan x="1060" dy="0">Vaststelling</tspan><tspan x="1060" dy="15">beoordelen</tspan></text><ellipse cx="340" cy="500" rx="150" ry="52" fill="#F4F2EC" stroke="#1B4A80" stroke-width="2"/><text x="340" y="505" font-family="DM Sans" font-size="13" font-weight="bold" fill="#14213D" text-anchor="middle"><tspan x="340" dy="0">Twijfelgeval</tspan><tspan x="340" dy="15">bevestigen</tspan></text>
</svg>